HIERARCHY
ROOT Hips
{
	OFFSET -0.001795 -0.223333 0.028219
	CHANNELS 6 Xposition Yposition Zposition Zrotation Yrotation Xrotation 
	JOINT LeftUpLeg
	{
		OFFSET 0.069520 -0.091406 -0.006815
		CHANNELS 3 Zrotation Yrotation Xrotation
		JOINT LeftLeg
		{
			OFFSET 0.034277 -0.375199 -0.004496
			CHANNELS 3 Zrotation Yrotation Xrotation
			JOINT LeftFoot
			{
				OFFSET -0.013596 -0.397961 -0.043693
				CHANNELS 3 Zrotation Yrotation Xrotation
				JOINT LeftToe
				{
					OFFSET 0.026358 -0.055791 0.119288
					CHANNELS 3 Zrotation Yrotation Xrotation
					End Site
					{
						OFFSET 0.000000 0.000000 0.000000
					}
				}
			}
		}
	}
	JOINT RightUpLeg
	{
		OFFSET -0.067670 -0.090522 -0.004320
		CHANNELS 3 Zrotation Yrotation Xrotation
		JOINT RightLeg
		{
			OFFSET -0.038290 -0.382569 -0.008850
			CHANNELS 3 Zrotation Yrotation Xrotation
			JOINT RightFoot
			{
				OFFSET 0.015774 -0.398415 -0.042312
				CHANNELS 3 Zrotation Yrotation Xrotation
				JOINT RightToe
				{
					OFFSET -0.025372 -0.048144 0.123348
					CHANNELS 3 Zrotation Yrotation Xrotation
					End Site
					{
						OFFSET 0.000000 0.000000 0.000000
					}
				}
			}
		}
	}
	JOINT Spine
	{
		OFFSET -0.002533 0.108963 -0.026696
		CHANNELS 3 Zrotation Yrotation Xrotation
		JOINT Spine1
		{
			OFFSET 0.005487 0.135180 0.001092
			CHANNELS 3 Zrotation Yrotation Xrotation
			JOINT Spine2
			{
				OFFSET 0.001457 0.052922 0.025425
				CHANNELS 3 Zrotation Yrotation Xrotation
				JOINT Neck
				{
					OFFSET -0.002778 0.213870 -0.042857
					CHANNELS 3 Zrotation Yrotation Xrotation
					JOINT Head
					{
						OFFSET 0.005152 0.064970 0.051349
						CHANNELS 3 Zrotation Yrotation Xrotation
						End Site
						{
							OFFSET 0.000000 0.000000 0.000000
						}
					}
				}
				JOINT LeftShoulder
				{
					OFFSET 0.078845 0.121749 -0.034090
					CHANNELS 3 Zrotation Yrotation Xrotation
					JOINT LeftArm
					{
						OFFSET 0.090977 0.030469 -0.008868
						CHANNELS 3 Zrotation Yrotation Xrotation
						JOINT LeftForeArm
						{
							OFFSET 0.259612 -0.012772 -0.027456
							CHANNELS 3 Zrotation Yrotation Xrotation
							JOINT LeftHand
							{
								OFFSET 0.249234 0.008986 -0.001171
								CHANNELS 3 Zrotation Yrotation Xrotation
								End Site
								{
									OFFSET 0.000000 0.000000 0.000000
								}
							}
						}
					}
				}
				JOINT RightShoulder
				{
					OFFSET -0.081759 0.118833 -0.038615
					CHANNELS 3 Zrotation Yrotation Xrotation
					JOINT RightArm
					{
						OFFSET -0.096012 0.032551 -0.009143
						CHANNELS 3 Zrotation Yrotation Xrotation
						JOINT RightForeArm
						{
							OFFSET -0.253742 -0.013329 -0.021401
							CHANNELS 3 Zrotation Yrotation Xrotation
							JOINT RightHand
							{
								OFFSET -0.255298 0.007772 -0.005559
								CHANNELS 3 Zrotation Yrotation Xrotation
								End Site
								{
									OFFSET 0.000000 0.000000 0.000000
								}
							}
						}
					}
				}
			}
		}
	}
}
MOTION
Frames: 16
Frame Time: 0.050000
-0.576271 0.954763 2.247290 -4.734334 -15.242407 -9.612932 -3.707646 -0.510775 -3.107279 -1.249084 0.694674 24.520921 -2.485329 -6.428080 -2.640201 0.000000 0.000000 0.000000 -1.670369 0.475444 -5.220995 3.472866 1.319131 28.707528 -0.871498 0.107424 -3.150835 0.000000 0.000000 0.000000 2.649426 -0.484355 11.653952 -8.031854 3.932489 -1.208554 -1.393793 9.552848 5.711774 2.503807 0.517689 -22.212364 0.000000 0.000000 0.000000 -21.017463 -6.024987 0.557124 -53.118621 -18.053612 1.594101 8.361231 -80.724045 -4.366137 0.000000 0.000000 0.000000 14.548027 11.239733 4.631746 60.204758 16.689010 2.483703 60.116099 67.555154 46.125356 0.000000 0.000000 0.000000 
-0.626258 0.939358 2.315499 -5.908377 -10.900417 -11.115748 -2.841450 -0.165491 -0.703661 0.388132 -0.293548 23.982218 -2.882413 -8.036038 -3.500478 0.000000 0.000000 0.000000 -1.314514 0.341835 -3.725763 0.241673 1.676281 24.908929 -0.118763 3.802946 -5.409178 0.000000 0.000000 0.000000 2.297100 -0.516727 11.903764 -7.174473 3.579681 -0.447452 -3.495071 8.897908 6.016214 5.139283 -0.716434 -22.125315 0.000000 0.000000 0.000000 -20.868154 -6.652673 0.320462 -51.789404 -21.866857 3.361063 17.926168 -81.975856 -13.753690 0.000000 0.000000 0.000000 17.329777 9.878482 4.598499 59.147662 14.704469 1.208579 43.303272 59.960542 29.440430 0.000000 0.000000 0.000000 
-0.676066 0.927436 2.376815 -7.274354 -4.420178 -12.217380 -0.224218 0.121933 1.260754 5.501945 -2.976604 29.541151 -3.629319 -15.568125 -10.104671 0.000000 0.000000 0.000000 -1.629680 0.195136 -2.317431 -2.479861 1.545061 17.902003 3.570746 11.037756 -2.077120 0.000000 0.000000 0.000000 2.641819 -0.709969 13.414671 -7.060406 3.429542 -2.095649 -5.106800 7.127853 7.680070 6.228140 -1.156261 -22.042724 0.000000 0.000000 0.000000 -21.831776 -8.630224 0.809523 -49.662676 -25.649865 4.825522 12.816512 -81.309364 -9.792568 0.000000 0.000000 0.000000 19.752197 7.175420 3.844979 58.643053 8.117099 -2.507835 36.927430 52.712981 22.285138 0.000000 0.000000 0.000000 
-0.720297 0.924546 2.426372 -8.351066 1.640316 -11.175955 2.171542 -0.028549 -0.708342 9.223714 -5.940209 35.104194 -3.563309 -19.741706 -13.132779 0.000000 0.000000 0.000000 -0.942036 0.259826 -2.920097 -4.084134 1.707647 17.050276 5.920703 14.882391 0.601939 0.000000 0.000000 0.000000 2.560187 -0.797350 13.001327 -6.488751 3.207616 -0.820026 -6.590546 6.983963 6.693256 8.834874 -2.306453 -21.579258 0.000000 0.000000 0.000000 -24.100424 -11.321832 0.957505 -48.080146 -28.354061 6.267638 -11.586031 -77.473525 9.313886 0.000000 0.000000 0.000000 22.491336 3.784725 2.978108 56.917346 4.338221 -4.396458 29.029213 45.903931 15.638511 0.000000 0.000000 0.000000 
-0.754960 0.925774 2.464880 -8.873585 7.958708 -11.247301 4.025899 -0.180246 -3.002242 11.012494 -8.944972 40.370996 -4.643926 -22.953823 -12.174299 0.000000 0.000000 0.000000 0.978681 0.194189 -1.644149 -3.634147 1.430396 18.917439 5.689537 15.498848 -0.982197 0.000000 0.000000 0.000000 3.940195 -1.145363 14.144160 -7.105113 3.495959 -0.074514 -7.042390 5.881742 5.366582 8.506448 -2.295781 -19.093983 0.000000 0.000000 0.000000 -23.422539 -13.240489 1.292817 -51.427000 -28.702868 7.217920 -13.744820 -75.943456 9.756393 0.000000 0.000000 0.000000 22.126847 2.157217 2.551022 57.623950 0.942867 -5.899862 20.354312 41.162504 10.426828 0.000000 0.000000 0.000000 
-0.779467 0.931261 2.495885 -8.839106 13.987776 -10.016488 3.672922 -0.455772 -6.563788 11.455182 -11.612683 44.666609 -5.007107 -19.379483 -8.053028 0.000000 0.000000 0.000000 0.638659 0.179613 -1.626776 -2.119208 0.698576 18.615204 5.186327 14.358571 -1.572138 0.000000 0.000000 0.000000 4.720340 -1.195561 12.688279 -6.106503 2.927382 2.030008 -8.010014 5.155699 4.782581 7.893306 -1.930989 -17.635282 0.000000 0.000000 0.000000 -25.124142 -14.859385 1.109061 -52.665560 -27.851557 7.506502 -20.207860 -70.683926 12.748269 0.000000 0.000000 0.000000 21.985308 2.007739 3.105738 58.118705 0.139194 -6.230105 12.307158 38.197855 6.813041 0.000000 0.000000 0.000000 
-0.795909 0.933836 2.523381 -8.481188 17.026033 -8.516909 3.431168 -0.736083 -9.801329 9.191795 -11.735942 47.344461 -3.077515 -12.247982 -6.092029 0.000000 0.000000 0.000000 1.405177 0.035218 -0.171923 -1.396088 0.366858 17.218124 3.873629 11.024355 -1.961931 0.000000 0.000000 0.000000 6.031397 -1.149228 10.725689 -6.398981 2.995294 1.820651 -7.806485 6.705138 6.365827 7.811935 -1.295629 -18.884477 0.000000 0.000000 0.000000 -26.055367 -14.261561 -0.497624 -52.298939 -23.636233 5.819668 -27.030003 -67.227013 15.825719 0.000000 0.000000 0.000000 21.472087 1.497332 3.661622 59.061270 3.095213 -4.965301 5.802447 32.335840 3.864293 0.000000 0.000000 0.000000 
-0.807342 0.937826 2.549025 -7.455637 19.720550 -7.739628 3.037413 -1.001683 -12.183902 6.383589 -10.650254 47.692041 -1.351237 -6.444543 -4.345910 0.000000 0.000000 0.000000 1.285755 -0.283671 2.272317 -0.873449 0.182387 14.747488 3.800255 10.659428 -1.691202 0.000000 0.000000 0.000000 6.285791 -1.200828 10.545880 -6.850086 3.147051 1.818340 -6.607705 8.262977 5.912009 6.183930 0.103100 -19.565095 0.000000 0.000000 0.000000 -27.594402 -14.130224 -1.926157 -50.283504 -17.245875 3.451860 -23.688518 -61.468430 11.788694 0.000000 0.000000 0.000000 22.027372 -0.394363 3.263787 57.107555 5.359331 -3.925723 3.573732 28.657491 2.844266 0.000000 0.000000 0.000000 
-0.813980 0.939656 2.573183 -6.546868 21.268443 -7.247728 3.011462 -1.414687 -15.749641 2.840767 -8.670209 47.278662 0.170323 -2.393135 -3.704115 0.000000 0.000000 0.000000 2.538354 -0.543800 4.021392 -1.282716 0.269695 13.930678 2.651058 7.877472 -2.504199 0.000000 0.000000 0.000000 5.958365 -1.280554 11.171635 -6.204280 2.874730 0.385207 -5.867478 10.606994 6.150504 6.625784 0.335447 -20.134569 0.000000 0.000000 0.000000 -30.026238 -13.399644 -4.389853 -47.896880 -10.853321 1.584027 -15.670955 -49.280312 5.411325 0.000000 0.000000 0.000000 22.849996 1.307914 5.487489 55.344288 11.099557 -1.757732 -1.187432 25.484558 1.499812 0.000000 0.000000 0.000000 
-0.815594 0.938267 2.596791 -5.663589 21.937676 -5.952508 2.913000 -1.915767 -19.404680 1.064963 -6.744032 43.697379 1.896104 1.886494 -3.173208 0.000000 0.000000 0.000000 2.874892 -0.609801 4.378901 -1.769720 0.394984 13.393507 2.351214 7.320127 -3.280044 0.000000 0.000000 0.000000 5.490979 -1.272739 11.277921 -5.867234 2.757055 -1.158171 -5.244038 13.931454 6.920099 7.569955 0.579358 -21.822267 0.000000 0.000000 0.000000 -29.345132 -13.138917 -6.040066 -47.356285 -4.834562 -0.338884 -8.546440 -36.647610 1.600678 0.000000 0.000000 0.000000 23.735524 1.924090 7.322636 52.645440 18.144193 0.709832 -4.527712 24.619482 0.857073 0.000000 0.000000 0.000000 
-0.811740 0.936786 2.620877 -4.832342 22.847338 -5.272436 3.388453 -2.250770 -21.953643 0.660894 -4.614413 35.069297 1.779804 3.270536 -0.623391 0.000000 0.000000 0.000000 3.245541 -0.886698 5.953136 -2.484372 0.570886 12.876607 2.249985 7.292636 -4.007259 0.000000 0.000000 0.000000 5.084902 -1.269559 11.455464 -5.927815 2.747017 -0.575590 -4.101201 15.915919 6.183742 6.953010 1.289944 -22.469116 0.000000 0.000000 0.000000 -29.576470 -11.661098 -7.923763 -45.905779 1.952901 -2.510058 -2.831847 -26.909604 0.018579 0.000000 0.000000 0.000000 23.111707 4.020169 9.164180 49.917376 23.315469 2.608262 -7.583517 25.771950 0.319669 0.000000 0.000000 0.000000 
-0.801667 0.934547 2.646083 -3.681585 23.767506 -4.200870 2.363796 -2.561353 -22.762666 0.277092 -2.395670 23.649145 0.933293 4.263893 3.491254 0.000000 0.000000 0.000000 3.192572 -1.196574 7.672898 -3.805970 0.891897 12.072373 2.491738 7.823352 -3.553721 0.000000 0.000000 0.000000 4.262678 -1.210632 11.593383 -6.052483 2.807771 -1.263386 -3.542358 17.848935 5.568694 7.742642 1.240155 -23.122775 0.000000 0.000000 0.000000 -27.714416 -8.993986 -9.563040 -44.651383 6.748624 -4.259824 -2.111465 -19.739654 -0.034380 0.000000 0.000000 0.000000 24.300632 3.409353 9.870196 46.742358 29.313655 4.311734 -9.834081 26.430398 -0.054100 0.000000 0.000000 0.000000 
-0.784569 0.932918 2.673038 -2.952076 25.857797 -3.827218 0.453276 -2.898137 -22.587679 -0.270276 -1.248138 15.885485 -0.443895 4.377246 7.431483 0.000000 0.000000 0.000000 3.209051 -1.624589 9.814368 -4.953974 1.124060 11.826896 2.456688 7.095405 -1.918647 0.000000 0.000000 0.000000 3.852705 -1.247998 12.019450 -6.316418 2.955730 -2.937805 -2.450000 19.983434 6.813752 8.993565 1.164270 -23.999592 0.000000 0.000000 0.000000 -25.413984 -6.923174 -10.818513 -43.982474 12.117553 -6.396012 -1.593287 -16.591736 -0.142970 0.000000 0.000000 0.000000 24.471041 1.814636 9.939760 46.916129 33.131597 5.804751 -13.304690 28.932243 -0.473451 0.000000 0.000000 0.000000 
-0.760257 0.931505 2.702447 -2.268799 28.000891 -3.903249 -2.433408 -2.905163 -20.149595 0.160687 -0.835362 11.209644 -0.836238 4.874768 8.966926 0.000000 0.000000 0.000000 2.522990 -2.056611 12.028609 -5.491397 1.209489 12.712360 2.990174 8.288787 -1.013821 0.000000 0.000000 0.000000 3.125547 -1.113169 11.506459 -5.919282 2.801579 -3.205343 -1.358299 21.183282 7.263743 9.758689 1.150366 -24.550276 0.000000 0.000000 0.000000 -23.482834 -4.379624 -11.827300 -44.413753 14.028403 -7.601454 -0.843365 -13.877357 -0.258751 0.000000 0.000000 0.000000 24.786595 1.601253 10.603889 44.269164 35.629480 6.000921 -14.973203 28.675864 -0.836504 0.000000 0.000000 0.000000 
-0.729256 0.930948 2.733257 -1.735073 32.660154 -3.863045 -5.355493 -2.793816 -17.490266 0.788659 -0.983883 11.164324 -1.371931 6.042408 11.602817 0.000000 0.000000 0.000000 1.612064 -2.278489 12.987424 -5.315198 0.918125 16.433305 3.029604 8.020085 -0.077274 0.000000 0.000000 0.000000 2.370239 -0.866264 9.869870 -5.091476 2.377229 -2.030897 -1.060074 20.070456 7.951672 10.221499 0.948251 -24.043534 0.000000 0.000000 0.000000 -23.328841 -2.936210 -12.933564 -44.223589 15.819260 -8.301451 0.367414 -13.348709 -0.439105 0.000000 0.000000 0.000000 24.555384 2.215317 11.413327 43.525494 35.607100 5.672557 -14.580015 28.518050 -0.818555 0.000000 0.000000 0.000000 
-0.695073 0.933204 2.762364 -1.951709 37.280963 -4.491649 -7.757017 -2.392608 -14.332308 1.015329 -1.146720 11.780467 -0.813352 6.408285 10.245727 0.000000 0.000000 0.000000 0.742531 -1.749704 10.412828 -5.227515 -0.539489 27.007723 3.756552 8.810303 3.463309 0.000000 0.000000 0.000000 2.055592 -0.785046 9.254459 -3.964329 1.972640 -2.854011 -0.456216 19.673891 9.501342 9.519733 1.798930 -24.733645 0.000000 0.000000 0.000000 -23.294733 -3.250777 -13.721886 -44.600001 16.526526 -8.533826 0.908840 -14.964068 -0.686121 0.000000 0.000000 0.000000 23.346332 1.957493 11.387630 43.971050 33.564415 5.066873 -11.929086 28.966014 -0.324637 0.000000 0.000000 0.000000 
